<?xml version="1.0" encoding="UTF-8" standalone="no"?>
<svg
   width="211.15463"
   height="148.54813"
   version="1.0"
   id="svg16"
   sodipodi:docname="Proline.svg"
   inkscape:version="1.2.2 (b0a8486541, 2022-12-01)"
   xmlns:inkscape="http://www.inkscape.org/namespaces/inkscape"
   xmlns:sodipodi="http://sodipodi.sourceforge.net/DTD/sodipodi-0.dtd"
   xmlns="http://www.w3.org/2000/svg"
   xmlns:svg="http://www.w3.org/2000/svg">
  <defs
     id="defs20" />
  <sodipodi:namedview
     id="namedview18"
     pagecolor="#ffffff"
     bordercolor="#000000"
     borderopacity="0.25"
     inkscape:showpageshadow="2"
     inkscape:pageopacity="0.0"
     inkscape:pagecheckerboard="0"
     inkscape:deskcolor="#d1d1d1"
     showgrid="false"
     inkscape:zoom="4.7732558"
     inkscape:cx="106.11206"
     inkscape:cy="77.515226"
     inkscape:window-width="1920"
     inkscape:window-height="1018"
     inkscape:window-x="0"
     inkscape:window-y="0"
     inkscape:window-maximized="1"
     inkscape:current-layer="g14" />
  <g
     stroke-linecap="round"
     font-family="Helvetica"
     font-size="16px"
     id="g14"
     transform="translate(-7.5360001,-8.7043762)">
    <path
       stroke="#000000"
       stroke-width="2.268"
       d="M 82.81,17.79 93.82,69.54 M 36,85.2 8.67,60.6 M 139.64,96 172,77.32 M 142.64,96 v 35 m -6,-35 v 35 M 93.82,69.54 61,88.51 m 34.74,-25.32 2.62,1.52 m 0.28,-7.3 3.27,1.9 m -0.37,-7.67 3.93,2.26 m -1.03,-8.04 4.58,2.64 m -1.68,-8.42 5.24,3.02 m -2.34,-8.8 5.89,3.4 M 93.82,69.54 139.64,96 M 30.19,12.27 82.81,17.79 M 8.67,60.6 30.19,12.27"
       id="path2" />
    <text
       x="127.33022"
       y="156.94"
       font-family="Arial"
       font-size="32px"
       id="text4">O</text>
    <text
       x="173.3"
       y="80.550003"
       font-family="Arial"
       font-size="32px"
       id="text6">OH</text>
    <text
       x="37.124001"
       y="103.01"
       font-family="Arial"
       font-size="32px"
       id="text8">N</text>
    <text
       x="201.3"
       y="121.72"
       font-family="Arial"
       font-size="32px"
       transform="translate(-93,-91)"
       id="text10">H</text>
    <text
       x="37.124001"
       y="128"
       font-family="Arial"
       font-size="32px"
       id="text12">H</text>
  </g>
</svg>
